<mxfile host="app.diagrams.net" modified="2022-04-07T09:17:56.622Z" agent="5.0 (Windows NT 10.0; Win64; x64) AppleWebKit/537.36 (KHTML, like Gecko) Chrome/99.0.4844.82 Safari/537.36" etag="LOH09IMd5LQcpVbknFSd" version="17.2.4" type="github">
  <diagram id="rSv-zCjtWpbRmkRwzaWN" name="Page-1">
    <mxGraphModel dx="1050" dy="702" grid="1" gridSize="10" guides="1" tooltips="1" connect="1" arrows="1" fold="1" page="1" pageScale="1" pageWidth="827" pageHeight="1169" math="0" shadow="0">
      <root>
        <mxCell id="0" />
        <mxCell id="1" parent="0" />
        <mxCell id="Kw4TD0Fx0s2Q0TaNbcHM-9" value="" style="group" vertex="1" connectable="0" parent="1">
          <mxGeometry x="108" y="390" width="98" height="98" as="geometry" />
        </mxCell>
        <mxCell id="Kw4TD0Fx0s2Q0TaNbcHM-7" value="光猫" style="rounded=0;whiteSpace=wrap;html=1;fontSize=16;" vertex="1" parent="Kw4TD0Fx0s2Q0TaNbcHM-9">
          <mxGeometry x="30" y="56" width="50" height="30" as="geometry" />
        </mxCell>
        <mxCell id="Kw4TD0Fx0s2Q0TaNbcHM-8" value="" style="shape=image;html=1;verticalAlign=top;verticalLabelPosition=bottom;labelBackgroundColor=#ffffff;imageAspect=0;aspect=fixed;image=https://cdn2.iconfinder.com/data/icons/user-interface-169/32/home-128.png;fontSize=16;container=0;" vertex="1" parent="Kw4TD0Fx0s2Q0TaNbcHM-9">
          <mxGeometry width="98" height="98" as="geometry" />
        </mxCell>
        <mxCell id="Kw4TD0Fx0s2Q0TaNbcHM-10" value="" style="group" vertex="1" connectable="0" parent="1">
          <mxGeometry x="10" y="390" width="98" height="98" as="geometry" />
        </mxCell>
        <mxCell id="Kw4TD0Fx0s2Q0TaNbcHM-11" value="光猫" style="rounded=0;whiteSpace=wrap;html=1;fontSize=16;" vertex="1" parent="Kw4TD0Fx0s2Q0TaNbcHM-10">
          <mxGeometry x="30" y="56" width="50" height="30" as="geometry" />
        </mxCell>
        <mxCell id="Kw4TD0Fx0s2Q0TaNbcHM-12" value="" style="shape=image;html=1;verticalAlign=top;verticalLabelPosition=bottom;labelBackgroundColor=#ffffff;imageAspect=0;aspect=fixed;image=https://cdn2.iconfinder.com/data/icons/user-interface-169/32/home-128.png;fontSize=16;container=0;" vertex="1" parent="Kw4TD0Fx0s2Q0TaNbcHM-10">
          <mxGeometry width="98" height="98" as="geometry" />
        </mxCell>
        <mxCell id="Kw4TD0Fx0s2Q0TaNbcHM-13" value="" style="group" vertex="1" connectable="0" parent="1">
          <mxGeometry x="710" y="390" width="98" height="98" as="geometry" />
        </mxCell>
        <mxCell id="Kw4TD0Fx0s2Q0TaNbcHM-14" value="光猫" style="rounded=0;whiteSpace=wrap;html=1;fontSize=16;" vertex="1" parent="Kw4TD0Fx0s2Q0TaNbcHM-13">
          <mxGeometry x="30" y="56" width="50" height="30" as="geometry" />
        </mxCell>
        <mxCell id="Kw4TD0Fx0s2Q0TaNbcHM-15" value="" style="shape=image;html=1;verticalAlign=top;verticalLabelPosition=bottom;labelBackgroundColor=#ffffff;imageAspect=0;aspect=fixed;image=https://cdn2.iconfinder.com/data/icons/user-interface-169/32/home-128.png;fontSize=16;container=0;" vertex="1" parent="Kw4TD0Fx0s2Q0TaNbcHM-13">
          <mxGeometry width="98" height="98" as="geometry" />
        </mxCell>
        <mxCell id="Kw4TD0Fx0s2Q0TaNbcHM-16" value="" style="group" vertex="1" connectable="0" parent="1">
          <mxGeometry x="610" y="390" width="98" height="98" as="geometry" />
        </mxCell>
        <mxCell id="Kw4TD0Fx0s2Q0TaNbcHM-17" value="光猫" style="rounded=0;whiteSpace=wrap;html=1;fontSize=16;" vertex="1" parent="Kw4TD0Fx0s2Q0TaNbcHM-16">
          <mxGeometry x="30" y="56" width="50" height="30" as="geometry" />
        </mxCell>
        <mxCell id="Kw4TD0Fx0s2Q0TaNbcHM-18" value="" style="shape=image;html=1;verticalAlign=top;verticalLabelPosition=bottom;labelBackgroundColor=#ffffff;imageAspect=0;aspect=fixed;image=https://cdn2.iconfinder.com/data/icons/user-interface-169/32/home-128.png;fontSize=16;container=0;" vertex="1" parent="Kw4TD0Fx0s2Q0TaNbcHM-16">
          <mxGeometry width="98" height="98" as="geometry" />
        </mxCell>
        <mxCell id="Kw4TD0Fx0s2Q0TaNbcHM-27" style="edgeStyle=orthogonalEdgeStyle;rounded=0;orthogonalLoop=1;jettySize=auto;html=1;exitX=0.5;exitY=0;exitDx=0;exitDy=0;entryX=0.5;entryY=1;entryDx=0;entryDy=0;fontSize=16;startArrow=classic;startFill=1;" edge="1" parent="1" source="Kw4TD0Fx0s2Q0TaNbcHM-19" target="Kw4TD0Fx0s2Q0TaNbcHM-20">
          <mxGeometry relative="1" as="geometry" />
        </mxCell>
        <mxCell id="Kw4TD0Fx0s2Q0TaNbcHM-19" value="成都某小区&lt;br&gt;交换机" style="rounded=0;whiteSpace=wrap;html=1;fontSize=16;" vertex="1" parent="1">
          <mxGeometry x="50" y="280" width="120" height="60" as="geometry" />
        </mxCell>
        <mxCell id="Kw4TD0Fx0s2Q0TaNbcHM-35" style="edgeStyle=orthogonalEdgeStyle;rounded=0;orthogonalLoop=1;jettySize=auto;html=1;exitX=1;exitY=0.5;exitDx=0;exitDy=0;entryX=0;entryY=0.5;entryDx=0;entryDy=0;fontSize=16;startArrow=classic;startFill=1;dashed=1;" edge="1" parent="1" source="Kw4TD0Fx0s2Q0TaNbcHM-20" target="Kw4TD0Fx0s2Q0TaNbcHM-33">
          <mxGeometry relative="1" as="geometry" />
        </mxCell>
        <mxCell id="Kw4TD0Fx0s2Q0TaNbcHM-20" value="四川省路由器" style="rounded=0;whiteSpace=wrap;html=1;fontSize=16;" vertex="1" parent="1">
          <mxGeometry x="80" y="150" width="120" height="60" as="geometry" />
        </mxCell>
        <mxCell id="Kw4TD0Fx0s2Q0TaNbcHM-21" value="广东省路由器" style="rounded=0;whiteSpace=wrap;html=1;fontSize=16;" vertex="1" parent="1">
          <mxGeometry x="599" y="150" width="120" height="60" as="geometry" />
        </mxCell>
        <mxCell id="Kw4TD0Fx0s2Q0TaNbcHM-32" style="edgeStyle=orthogonalEdgeStyle;rounded=0;orthogonalLoop=1;jettySize=auto;html=1;exitX=0.5;exitY=0;exitDx=0;exitDy=0;entryX=0.5;entryY=1;entryDx=0;entryDy=0;fontSize=16;startArrow=classic;startFill=1;" edge="1" parent="1" source="Kw4TD0Fx0s2Q0TaNbcHM-22" target="Kw4TD0Fx0s2Q0TaNbcHM-21">
          <mxGeometry relative="1" as="geometry" />
        </mxCell>
        <mxCell id="Kw4TD0Fx0s2Q0TaNbcHM-22" value="深圳某小区&lt;br&gt;交换机" style="rounded=0;whiteSpace=wrap;html=1;fontSize=16;" vertex="1" parent="1">
          <mxGeometry x="650" y="280" width="120" height="60" as="geometry" />
        </mxCell>
        <mxCell id="Kw4TD0Fx0s2Q0TaNbcHM-23" style="edgeStyle=orthogonalEdgeStyle;rounded=0;orthogonalLoop=1;jettySize=auto;html=1;exitX=0.5;exitY=0;exitDx=0;exitDy=0;entryX=0.5;entryY=1;entryDx=0;entryDy=0;fontSize=16;startArrow=classic;startFill=1;" edge="1" parent="1" source="Kw4TD0Fx0s2Q0TaNbcHM-12" target="Kw4TD0Fx0s2Q0TaNbcHM-19">
          <mxGeometry relative="1" as="geometry" />
        </mxCell>
        <mxCell id="Kw4TD0Fx0s2Q0TaNbcHM-24" style="edgeStyle=orthogonalEdgeStyle;rounded=0;orthogonalLoop=1;jettySize=auto;html=1;exitX=0.5;exitY=0;exitDx=0;exitDy=0;entryX=0.5;entryY=1;entryDx=0;entryDy=0;fontSize=16;startArrow=classic;startFill=1;" edge="1" parent="1" source="Kw4TD0Fx0s2Q0TaNbcHM-8" target="Kw4TD0Fx0s2Q0TaNbcHM-19">
          <mxGeometry relative="1" as="geometry" />
        </mxCell>
        <mxCell id="Kw4TD0Fx0s2Q0TaNbcHM-25" style="edgeStyle=orthogonalEdgeStyle;rounded=0;orthogonalLoop=1;jettySize=auto;html=1;exitX=0.5;exitY=0;exitDx=0;exitDy=0;entryX=0.5;entryY=1;entryDx=0;entryDy=0;fontSize=16;startArrow=classic;startFill=1;" edge="1" parent="1" source="Kw4TD0Fx0s2Q0TaNbcHM-18" target="Kw4TD0Fx0s2Q0TaNbcHM-22">
          <mxGeometry relative="1" as="geometry" />
        </mxCell>
        <mxCell id="Kw4TD0Fx0s2Q0TaNbcHM-26" style="edgeStyle=orthogonalEdgeStyle;rounded=0;orthogonalLoop=1;jettySize=auto;html=1;exitX=0.5;exitY=0;exitDx=0;exitDy=0;fontSize=16;startArrow=classic;startFill=1;" edge="1" parent="1" source="Kw4TD0Fx0s2Q0TaNbcHM-15">
          <mxGeometry relative="1" as="geometry">
            <mxPoint x="710" y="340" as="targetPoint" />
          </mxGeometry>
        </mxCell>
        <mxCell id="Kw4TD0Fx0s2Q0TaNbcHM-36" style="edgeStyle=orthogonalEdgeStyle;rounded=0;orthogonalLoop=1;jettySize=auto;html=1;exitX=1;exitY=0.5;exitDx=0;exitDy=0;entryX=0;entryY=0.5;entryDx=0;entryDy=0;fontSize=16;startArrow=classic;startFill=1;dashed=1;" edge="1" parent="1" source="Kw4TD0Fx0s2Q0TaNbcHM-33" target="Kw4TD0Fx0s2Q0TaNbcHM-34">
          <mxGeometry relative="1" as="geometry" />
        </mxCell>
        <mxCell id="Kw4TD0Fx0s2Q0TaNbcHM-33" value="光信号放大" style="rounded=0;whiteSpace=wrap;html=1;fontSize=16;" vertex="1" parent="1">
          <mxGeometry x="310" y="135" width="50" height="90" as="geometry" />
        </mxCell>
        <mxCell id="Kw4TD0Fx0s2Q0TaNbcHM-37" style="edgeStyle=orthogonalEdgeStyle;rounded=0;orthogonalLoop=1;jettySize=auto;html=1;exitX=1;exitY=0.5;exitDx=0;exitDy=0;entryX=0;entryY=0.5;entryDx=0;entryDy=0;fontSize=16;startArrow=classic;startFill=1;dashed=1;" edge="1" parent="1" source="Kw4TD0Fx0s2Q0TaNbcHM-34" target="Kw4TD0Fx0s2Q0TaNbcHM-21">
          <mxGeometry relative="1" as="geometry" />
        </mxCell>
        <mxCell id="Kw4TD0Fx0s2Q0TaNbcHM-34" value="光信号传输" style="rounded=0;whiteSpace=wrap;html=1;fontSize=16;" vertex="1" parent="1">
          <mxGeometry x="450" y="135" width="50" height="90" as="geometry" />
        </mxCell>
        <mxCell id="Kw4TD0Fx0s2Q0TaNbcHM-41" value="" style="endArrow=classic;html=1;rounded=0;dashed=1;fontSize=16;exitX=0.612;exitY=0.816;exitDx=0;exitDy=0;exitPerimeter=0;" edge="1" parent="1" source="Kw4TD0Fx0s2Q0TaNbcHM-12">
          <mxGeometry width="50" height="50" relative="1" as="geometry">
            <mxPoint x="260" y="510" as="sourcePoint" />
            <mxPoint x="360" y="540" as="targetPoint" />
          </mxGeometry>
        </mxCell>
        <mxCell id="Kw4TD0Fx0s2Q0TaNbcHM-42" value="" style="endArrow=classic;html=1;rounded=0;dashed=1;fontSize=16;exitX=0.531;exitY=0.816;exitDx=0;exitDy=0;exitPerimeter=0;" edge="1" parent="1" source="Kw4TD0Fx0s2Q0TaNbcHM-8">
          <mxGeometry width="50" height="50" relative="1" as="geometry">
            <mxPoint x="79.97600000000011" y="479.9680000000001" as="sourcePoint" />
            <mxPoint x="360" y="540" as="targetPoint" />
          </mxGeometry>
        </mxCell>
        <mxCell id="Kw4TD0Fx0s2Q0TaNbcHM-43" value="" style="endArrow=classic;html=1;rounded=0;dashed=1;fontSize=16;exitX=0.51;exitY=0.816;exitDx=0;exitDy=0;exitPerimeter=0;" edge="1" parent="1" source="Kw4TD0Fx0s2Q0TaNbcHM-18">
          <mxGeometry width="50" height="50" relative="1" as="geometry">
            <mxPoint x="89.97600000000011" y="489.9680000000001" as="sourcePoint" />
            <mxPoint x="360" y="540" as="targetPoint" />
          </mxGeometry>
        </mxCell>
        <mxCell id="Kw4TD0Fx0s2Q0TaNbcHM-44" value="" style="endArrow=classic;html=1;rounded=0;dashed=1;fontSize=16;exitX=0.612;exitY=0.816;exitDx=0;exitDy=0;exitPerimeter=0;" edge="1" parent="1" source="Kw4TD0Fx0s2Q0TaNbcHM-15">
          <mxGeometry width="50" height="50" relative="1" as="geometry">
            <mxPoint x="99.97600000000011" y="499.9680000000001" as="sourcePoint" />
            <mxPoint x="360" y="540" as="targetPoint" />
          </mxGeometry>
        </mxCell>
        <mxCell id="Kw4TD0Fx0s2Q0TaNbcHM-45" value="接入设备" style="text;html=1;strokeColor=none;fillColor=none;align=center;verticalAlign=middle;whiteSpace=wrap;rounded=0;fontSize=16;" vertex="1" parent="1">
          <mxGeometry x="330" y="536" width="80" height="30" as="geometry" />
        </mxCell>
        <mxCell id="Kw4TD0Fx0s2Q0TaNbcHM-46" value="" style="endArrow=classic;html=1;rounded=0;dashed=1;fontSize=16;exitX=0.4;exitY=0.167;exitDx=0;exitDy=0;exitPerimeter=0;" edge="1" parent="1" source="Kw4TD0Fx0s2Q0TaNbcHM-33">
          <mxGeometry width="50" height="50" relative="1" as="geometry">
            <mxPoint x="400" y="320" as="sourcePoint" />
            <mxPoint x="410" y="100" as="targetPoint" />
          </mxGeometry>
        </mxCell>
        <mxCell id="Kw4TD0Fx0s2Q0TaNbcHM-47" value="" style="endArrow=classic;html=1;rounded=0;dashed=1;fontSize=16;exitX=0.6;exitY=0.167;exitDx=0;exitDy=0;exitPerimeter=0;" edge="1" parent="1" source="Kw4TD0Fx0s2Q0TaNbcHM-34">
          <mxGeometry width="50" height="50" relative="1" as="geometry">
            <mxPoint x="520" y="109.09090909090912" as="sourcePoint" />
            <mxPoint x="410" y="100" as="targetPoint" />
          </mxGeometry>
        </mxCell>
        <mxCell id="Kw4TD0Fx0s2Q0TaNbcHM-48" value="传送设备" style="text;html=1;strokeColor=none;fillColor=none;align=center;verticalAlign=middle;whiteSpace=wrap;rounded=0;fontSize=16;" vertex="1" parent="1">
          <mxGeometry x="373" y="75" width="80" height="30" as="geometry" />
        </mxCell>
        <mxCell id="Kw4TD0Fx0s2Q0TaNbcHM-49" value="光电信号的传送" style="shape=note;strokeWidth=2;fontSize=14;size=8;whiteSpace=wrap;html=1;fillColor=#fff2cc;strokeColor=#d6b656;fontColor=#666600;" vertex="1" parent="1">
          <mxGeometry x="450" y="72.5" width="110" height="35" as="geometry" />
        </mxCell>
        <mxCell id="Kw4TD0Fx0s2Q0TaNbcHM-50" value="光电信号接入骨干网络" style="shape=note;strokeWidth=2;fontSize=14;size=8;whiteSpace=wrap;html=1;fillColor=#fff2cc;strokeColor=#d6b656;fontColor=#666600;" vertex="1" parent="1">
          <mxGeometry x="420" y="533.5" width="110" height="35" as="geometry" />
        </mxCell>
      </root>
    </mxGraphModel>
  </diagram>
</mxfile>
